<?xml version="1.0" encoding="utf-8"?>
<svg width="203px" height="203px" viewBox="0 0 203 203" version="1.1" xmlns:xlink="http://www.w3.org/1999/xlink" xmlns="http://www.w3.org/2000/svg">
  <path d="M0 101.5C0 45.4431 45.4431 0 101.5 0C157.557 0 203 45.4431 203 101.5C203 157.557 157.557 203 101.5 203C45.4431 203 0 157.557 0 101.5Z" id="Oval-3" fill="#AE99B1" fill-rule="evenodd" stroke="none" />
  <path d="M68 59.5C68 40.9985 82.9985 26 101.5 26C120.002 26 135 40.9985 135 59.5C135 78.0015 120.002 93 101.5 93C82.9985 93 68 78.0015 68 59.5Z" id="Oval" fill="#E8E4E4" fill-rule="evenodd" stroke="none" />
  <path d="M30 171.404C30 134.124 62.0117 103.904 101.5 103.904C140.988 103.904 173 134.124 173 171.404C173 181.588 125.747 201.62 101 199.904C101 199.904 113.872 206.87 101 199.904C101 199.904 101.5 199.904 101.5 199.904C75.2534 201.573 30 181.588 30 171.404L30 171.404Z" id="Vector" fill="#E8E4E4" fill-rule="evenodd" stroke="none" />
</svg>